<svg width="51" height="65" viewBox="0 0 51 65" fill="none" xmlns="http://www.w3.org/2000/svg">
<line x1="6" y1="14.5" x2="26" y2="14.5" stroke="#838383"/>
<line x1="6" y1="19.5" x2="44" y2="19.5" stroke="#838383"/>
<line x1="6" y1="29.5" x2="44" y2="29.5" stroke="#838383"/>
<line x1="6" y1="24.5" x2="44" y2="24.5" stroke="#838383"/>
<line x1="6" y1="34.5" x2="44" y2="34.5" stroke="#838383"/>
<path d="M20.1729 59.9902V65H18.4854V52.2031H23.2051C24.6055 52.2031 25.7012 52.5605 26.4922 53.2754C27.2891 53.9902 27.6875 54.9365 27.6875 56.1143C27.6875 57.3564 27.2979 58.3145 26.5186 58.9883C25.7451 59.6562 24.6348 59.9902 23.1875 59.9902H20.1729ZM20.1729 58.6104H23.2051C24.1074 58.6104 24.7988 58.3994 25.2793 57.9775C25.7598 57.5498 26 56.9346 26 56.1318C26 55.3701 25.7598 54.7607 25.2793 54.3037C24.7988 53.8467 24.1396 53.6094 23.3018 53.5918H20.1729V58.6104ZM29.8408 65V52.2031H33.4531C34.5664 52.2031 35.5508 52.4492 36.4062 52.9414C37.2617 53.4336 37.9209 54.1338 38.3838 55.042C38.8525 55.9502 39.0898 56.9932 39.0957 58.1709V58.9883C39.0957 60.1953 38.8613 61.2529 38.3926 62.1611C37.9297 63.0693 37.2646 63.7666 36.3975 64.2529C35.5361 64.7393 34.5312 64.9883 33.3828 65H29.8408ZM31.5283 53.5918V63.6201H33.3037C34.6045 63.6201 35.6152 63.2158 36.3359 62.4072C37.0625 61.5986 37.4258 60.4473 37.4258 58.9531V58.2061C37.4258 56.7529 37.083 55.625 36.3975 54.8223C35.7178 54.0137 34.751 53.6035 33.4971 53.5918H31.5283ZM48.7109 59.3486H43.3408V65H41.6533V52.2031H49.5811V53.5918H43.3408V57.9688H48.7109V59.3486Z" fill="#838383"/>
<path fill-rule="evenodd" clip-rule="evenodd" d="M48 2H2V63H13V65H2H0V63V2V0H2H48H50V2V47H48V2Z" fill="#FEC600"/>
</svg>
