<svg width="150" height="150" viewBox="0 0 150 150" fill="none" xmlns="http://www.w3.org/2000/svg">
<circle cx="75" cy="75" r="75" fill="#FEC600"/>
<path d="M57.1647 74.5L75.0092 55.7163L93.7929 74.5H57.1647Z" stroke="black"/>
<rect x="71.5" y="81.5" width="7" height="7" stroke="black"/>
<path fill-rule="evenodd" clip-rule="evenodd" d="M56 75V81H57V75H56ZM56 94V93H57H59H94V87H95V93V94H94H57H56Z" fill="black"/>
<path d="M11.8945 29.8867C11.8945 32.293 11.4531 34.1211 10.5703 35.3711C9.6875 36.6133 8.38672 37.2344 6.66797 37.2344C4.98047 37.2344 3.6875 36.625 2.78906 35.4062C1.89062 34.1797 1.42969 32.3984 1.40625 30.0625V27.0039C1.40625 24.6055 1.85156 22.7891 2.74219 21.5547C3.63281 20.3203 4.93359 19.7031 6.64453 19.7031C8.33203 19.7031 9.62109 20.3008 10.5117 21.4961C11.4023 22.6836 11.8633 24.4375 11.8945 26.7578V29.8867ZM10.4883 26.8281C10.4883 24.875 10.168 23.3984 9.52734 22.3984C8.89453 21.3984 7.93359 20.8984 6.64453 20.8984C5.37891 20.8984 4.42578 21.3867 3.78516 22.3633C3.14453 23.3398 2.81641 24.7812 2.80078 26.6875V30.0391C2.80078 31.9844 3.12891 33.4727 3.78516 34.5039C4.44922 35.5352 5.41016 36.0508 6.66797 36.0508C7.91797 36.0508 8.86328 35.5469 9.50391 34.5391C10.1523 33.5312 10.4805 32.0547 10.4883 30.1094V26.8281ZM22.1653 37H20.7591V21.625L16.1184 23.3477V22.0352L21.9309 19.8789H22.1653V37Z" fill="black"/>
</svg>
