<svg width="150" height="150" viewBox="0 0 150 150" fill="none" xmlns="http://www.w3.org/2000/svg">
<circle cx="75" cy="75" r="75" fill="#FEC600"/>
<rect x="61.5" y="81.5" width="28" height="12" stroke="black"/>
<path fill-rule="evenodd" clip-rule="evenodd" d="M67.7472 55L58.8805 62H92L82.6667 55H84.3333L93.6667 62L95 63H93.3333H57.6138H56L57.2667 62L66.1333 55H67.7472Z" fill="black"/>
<path d="M66.2676 55.5L84.0008 55.5" stroke="black"/>
<line x1="94.5" y1="63" x2="94.5" y2="69" stroke="black"/>
<line x1="56" y1="93.5" x2="95" y2="93.5" stroke="black"/>
<line x1="94.5" y1="93" x2="94.5" y2="85" stroke="black"/>
<line x1="56.5" y1="87" x2="56.5" y2="73" stroke="black"/>
<path d="M11.8945 29.8867C11.8945 32.293 11.4531 34.1211 10.5703 35.3711C9.6875 36.6133 8.38672 37.2344 6.66797 37.2344C4.98047 37.2344 3.6875 36.625 2.78906 35.4062C1.89062 34.1797 1.42969 32.3984 1.40625 30.0625V27.0039C1.40625 24.6055 1.85156 22.7891 2.74219 21.5547C3.63281 20.3203 4.93359 19.7031 6.64453 19.7031C8.33203 19.7031 9.62109 20.3008 10.5117 21.4961C11.4023 22.6836 11.8633 24.4375 11.8945 26.7578V29.8867ZM10.4883 26.8281C10.4883 24.875 10.168 23.3984 9.52734 22.3984C8.89453 21.3984 7.93359 20.8984 6.64453 20.8984C5.37891 20.8984 4.42578 21.3867 3.78516 22.3633C3.14453 23.3398 2.81641 24.7812 2.80078 26.6875V30.0391C2.80078 31.9844 3.12891 33.4727 3.78516 34.5039C4.44922 35.5352 5.41016 36.0508 6.66797 36.0508C7.91797 36.0508 8.86328 35.5469 9.50391 34.5391C10.1523 33.5312 10.4805 32.0547 10.4883 30.1094V26.8281ZM26.3255 37H15.638V35.9219L21.4856 29.2891C22.4544 28.1719 23.1263 27.25 23.5013 26.5234C23.8763 25.7969 24.0638 25.0898 24.0638 24.4023C24.0638 23.3242 23.7473 22.4727 23.1145 21.8477C22.4817 21.2148 21.6106 20.8984 20.5013 20.8984C19.3528 20.8984 18.4231 21.2656 17.7122 22C17.0091 22.7344 16.6575 23.6875 16.6575 24.8594H15.263C15.263 23.8984 15.4778 23.0234 15.9075 22.2344C16.345 21.4453 16.9622 20.8281 17.7591 20.3828C18.5638 19.9297 19.4778 19.7031 20.5013 19.7031C22.0638 19.7031 23.2825 20.1133 24.1575 20.9336C25.0403 21.7539 25.4817 22.8711 25.4817 24.2852C25.4817 25.082 25.2317 25.9531 24.7317 26.8984C24.2395 27.8438 23.3684 29.0234 22.1184 30.4375L17.3606 35.8164H26.3255V37Z" fill="black"/>
</svg>
