<svg width="150" height="150" viewBox="0 0 150 150" fill="none" xmlns="http://www.w3.org/2000/svg">
<circle cx="75" cy="75" r="75" fill="#FEC600"/>
<g clip-path="url(#clip0)">
<path d="M80 65.0631C80 68.3096 81.2079 71.5537 83.6223 74.8404C87.6865 80.3709 87.6852 87.3516 83.6171 93.0567C83.4175 93.3385 83.5024 93.7161 83.8089 93.9003C84.1154 94.0847 84.5268 94.006 84.7277 93.7244C89.0926 87.601 89.0906 80.104 84.7225 74.1584C80.2294 68.0433 80.2287 62.0868 84.7232 55.9496C84.928 55.6702 84.8463 55.2917 84.5424 55.1037C84.2385 54.9159 83.8264 54.9903 83.6216 55.2694C81.2072 58.5674 80 61.8163 80 65.0631Z" fill="black"/>
<path d="M76.728 93.7243C81.0925 87.6003 81.0905 80.1033 76.7228 74.1584C72.2287 68.0426 72.2294 62.0861 76.7235 55.9495C76.9282 55.6701 76.8472 55.2916 76.5427 55.1039C76.2388 54.9158 75.8267 54.9902 75.622 55.2693C73.2078 58.567 72 61.8156 72 65.0624C72.0007 68.3089 73.2078 71.5531 75.6226 74.8404C79.6871 80.3702 79.6845 87.351 75.6175 93.0567C75.4179 93.3384 75.5027 93.7164 75.8093 93.9005C76.1157 94.0847 76.5271 94.0059 76.728 93.7243Z" fill="black"/>
<path d="M68.3197 93.7243C73.2289 87.6003 73.2266 80.1036 68.3138 74.1584C63.2573 68.0439 63.2559 62.0878 68.3146 55.9495C68.5449 55.6701 68.453 55.2916 68.1111 55.1039C67.7692 54.9158 67.3056 54.9902 67.0752 55.2693C64.3582 58.5673 62.9993 61.8165 63 65.063C63 68.3095 64.3589 71.5537 67.0759 74.8401C71.6476 80.3709 71.6462 87.351 67.0701 93.0567C66.8456 93.3384 66.9411 93.7164 67.2859 93.9005C67.6307 94.0847 68.0937 94.0059 68.3197 93.7243Z" fill="black"/>
</g>
<defs>
<clipPath id="clip0">
<rect width="39" height="39" fill="white" transform="translate(95 55) rotate(90)"/>
</clipPath>
</defs>
</svg>
