<svg width="150" height="150" viewBox="0 0 150 150" fill="none" xmlns="http://www.w3.org/2000/svg">
<circle cx="75" cy="75" r="75" fill="#FEC600"/>
<path d="M70.7563 66.8497C70.2134 67.2338 69.7481 67.7173 69.3852 68.2747C69.3423 68.3404 69.3128 68.4139 69.2983 68.4911C69.2839 68.5682 69.2847 68.6475 69.3009 68.7243C69.317 68.8011 69.3482 68.874 69.3925 68.9387C69.4368 69.0035 69.4935 69.0589 69.5592 69.1018C69.6249 69.1447 69.6985 69.1742 69.7756 69.1887C69.8528 69.2032 69.932 69.2023 70.0088 69.1861C70.0856 69.17 70.1585 69.1388 70.2233 69.0945C70.2881 69.0502 70.3435 68.9935 70.3864 68.9278C70.6672 68.4963 71.0272 68.1219 71.4475 67.8244C71.5757 67.7323 71.6622 67.5933 71.6882 67.4376C71.7142 67.2819 71.6776 67.1223 71.5863 66.9935C71.495 66.8647 71.3566 66.7773 71.2011 66.7503C71.0456 66.7233 70.8857 66.7588 70.7563 66.8493V66.8497Z" fill="black"/>
<path d="M59.9321 93.4783H55.5513V66.0995C55.5513 66.0896 55.5527 66.0804 55.5527 66.0706C55.5527 61.3439 59.1992 57.4984 63.6813 57.4984C67.9901 57.4984 71.5249 61.053 71.7917 65.5274C70.5111 65.6796 69.3307 66.2958 68.4737 67.2594C67.6166 68.223 67.1424 69.4673 67.1406 70.7569V71.6907C67.1406 71.8492 67.2035 72.0012 67.3156 72.1133C67.4277 72.2254 67.5797 72.2884 67.7382 72.2884H70.3978C70.662 73.2446 71.5162 73.9509 72.5167 73.9509C73.5172 73.9509 74.3713 73.245 74.6354 72.2884H77.0767C77.2352 72.2884 77.3872 72.2254 77.4993 72.1133C77.6114 72.0012 77.6744 71.8492 77.6744 71.6907V70.7569C77.6726 69.4615 77.1942 68.212 76.3303 67.2467C75.4664 66.2814 74.2775 65.6679 72.9902 65.523C72.7182 60.3908 68.6473 56.3029 63.6814 56.3029C58.5573 56.3029 54.3859 60.6558 54.358 66.0169C54.357 66.0307 54.3559 66.0446 54.3559 66.0586V93.4781H50.5938C50.4352 93.4781 50.2832 93.541 50.1711 93.6531C50.0591 93.7652 49.9961 93.9172 49.9961 94.0757C49.9961 94.2342 50.0591 94.3862 50.1711 94.4983C50.2832 94.6104 50.4352 94.6734 50.5938 94.6734H59.9321C60.0906 94.6734 60.2427 94.6104 60.3547 94.4983C60.4668 94.3862 60.5298 94.2342 60.5298 94.0757C60.5298 93.9172 60.4668 93.7652 60.3547 93.6531C60.2427 93.541 60.0906 93.4781 59.9321 93.4781V93.4783ZM72.5166 72.7558C72.3509 72.7532 72.1886 72.709 72.0445 72.6274C71.9003 72.5457 71.779 72.4292 71.6915 72.2886H73.3415C73.2541 72.4292 73.1327 72.5457 72.9886 72.6273C72.8445 72.709 72.6822 72.7532 72.5166 72.7558ZM76.4789 70.7569V71.0931H68.3359V70.7569C68.3359 69.677 68.7648 68.6414 69.5284 67.8779C70.292 67.1143 71.3276 66.6853 72.4074 66.6853C73.4872 66.6853 74.5229 67.1143 75.2864 67.8779C76.05 68.6414 76.4789 69.677 76.4789 70.7569Z" fill="black"/>
<path d="M96.181 84.244V80.2895C96.175 79.6225 95.9048 78.9852 95.4295 78.5172C94.9543 78.0492 94.3128 77.7889 93.6458 77.7933H82.7093C82.3763 77.7916 82.0463 77.8561 81.7385 77.9832C81.4307 78.1102 81.1512 78.2971 80.9164 78.5332C80.8671 78.583 80.8208 78.6342 80.7763 78.687C80.5367 78.4062 80.239 78.1808 79.9037 78.0265C79.5684 77.8722 79.2036 77.7926 78.8345 77.7933H67.8359C67.1689 77.7889 66.5274 78.0492 66.0521 78.5172C65.5768 78.9851 65.3066 79.6225 65.3006 80.2895V84.2553C64.5852 84.3186 63.919 84.646 63.4319 85.1738C62.9447 85.7015 62.6715 86.3917 62.6655 87.1098V94.0762C62.6655 94.2347 62.7285 94.3867 62.8406 94.4988C62.9527 94.6109 63.1047 94.6739 63.2632 94.6739H67.8969C68.0554 94.6739 68.2074 94.6109 68.3195 94.4988C68.4316 94.3867 68.4946 94.2347 68.4946 94.0762V93.28L93.1747 93.2876V94.0762C93.1747 94.2347 93.2376 94.3867 93.3497 94.4988C93.4618 94.6109 93.6138 94.6739 93.7723 94.6739H98.406C98.5645 94.6739 98.7165 94.6109 98.8286 94.4988C98.9407 94.3867 99.0036 94.2347 99.0036 94.0762V87.1095C98.9968 86.359 98.6986 85.6405 98.1719 85.1058C97.6452 84.5711 96.9313 84.2621 96.181 84.244ZM81.763 79.3765C81.8871 79.2522 82.0347 79.1539 82.1972 79.0872C82.3596 79.0205 82.5337 78.9868 82.7093 78.988H93.6458C93.9959 78.9833 94.3335 79.1176 94.5847 79.3615C94.8358 79.6053 94.98 79.9388 94.9857 80.2889V84.4554C94.4537 84.667 93.9971 85.0326 93.6745 85.5055C93.3518 85.9783 93.1778 86.5368 93.1747 87.1092V87.3433L81.3728 87.3403L81.3743 80.349C81.3714 80.1693 81.4042 79.9907 81.471 79.8237C81.5377 79.6567 81.637 79.5047 81.763 79.3765ZM67.8359 78.988H78.8343C79.1845 78.9833 79.5222 79.1177 79.7734 79.3617C80.0245 79.6057 80.1687 79.9393 80.1742 80.2895L80.1769 87.34L68.4946 87.3368V87.1096C68.4908 86.5032 68.2955 85.9134 67.9366 85.4245C67.5777 84.9357 67.0734 84.5728 66.4959 84.3876V80.2895C66.5015 79.9394 66.6457 79.6058 66.8969 79.3619C67.1481 79.1179 67.4857 78.9836 67.8359 78.9883V78.988ZM67.2993 93.478H63.8608V87.1095C63.8731 86.6617 64.0597 86.2364 64.3807 85.924C64.7018 85.6116 65.1321 85.4369 65.58 85.4369C66.028 85.4369 66.4583 85.6116 66.7794 85.924C67.1004 86.2364 67.287 86.6617 67.2993 87.1095V93.478ZM68.4946 92.0841V88.5321L80.7742 88.5354H80.7751L93.1746 88.5389V92.092L68.4946 92.0841ZM97.8083 93.4783H94.37V87.1095C94.3818 86.6614 94.5681 86.2357 94.8892 85.9229C95.2104 85.6101 95.6409 85.4351 96.0891 85.4351C96.5374 85.4351 96.9679 85.6101 97.2891 85.9229C97.6102 86.2357 97.7965 86.6614 97.8083 87.1095V93.4783Z" fill="black"/>
</svg>
