<svg width="150" height="150" viewBox="0 0 150 150" fill="none" xmlns="http://www.w3.org/2000/svg">
<circle cx="75" cy="75" r="75" fill="#FEC600"/>
<path d="M80.8378 68.1491H83.7607C84.2161 68.1491 84.5887 67.7765 84.5887 67.3211C84.5887 66.8657 84.2161 66.493 83.7607 66.493H80.8378C80.3824 66.493 80.0098 66.8657 80.0098 67.3211C80.0098 67.7765 80.3824 68.1491 80.8378 68.1491Z" fill="black"/>
<path d="M72.6565 82.772V64.5141C72.6565 64.0586 72.2839 63.686 71.8285 63.686C71.373 63.686 71.0004 64.0586 71.0004 64.5141V82.772C69.2947 83.1529 68.0195 84.6765 68.0195 86.4899C68.0195 88.593 69.7253 90.2988 71.8285 90.2988C73.9316 90.2988 75.6374 88.593 75.6374 86.4899C75.6374 84.6765 74.3622 83.1529 72.6565 82.772ZM71.8285 88.6427C70.6444 88.6427 69.6756 87.6739 69.6756 86.4899C69.6756 85.3058 70.6444 84.337 71.8285 84.337C73.0125 84.337 73.9813 85.3058 73.9813 86.4899C73.9813 87.6822 73.0125 88.6427 71.8285 88.6427Z" fill="black"/>
<path d="M76.6467 80.3293V59.6369C76.6467 57.0783 74.5021 55 71.8525 55C69.1614 55 66.9754 57.0783 66.9754 59.6369V80.3293C64.4002 82.3414 63.3652 85.6452 64.3919 88.6924C64.8888 90.2408 65.8658 91.5656 67.2155 92.5261C68.5652 93.4866 70.1633 94 71.8442 94C73.4837 94 75.0652 93.4866 76.4232 92.5261C77.7646 91.5656 78.7582 90.2408 79.2964 88.7006C79.2964 88.6924 79.3047 88.6841 79.3047 88.6758C80.2652 85.6204 79.197 82.3166 76.6467 80.3293ZM77.7232 88.179C76.862 90.6382 74.4442 92.3522 71.8442 92.3522C69.1283 92.3522 66.7684 90.6796 65.9652 88.1873C65.9569 88.179 65.9569 88.179 65.9569 88.1707C65.1123 85.6866 66.0397 82.979 68.2671 81.4306C68.4907 81.2733 68.6232 81.0248 68.6232 80.7516V59.6369C68.6232 57.9892 70.0722 56.6561 71.8442 56.6561C73.5499 56.6561 74.9907 58.0223 74.9824 59.6369V80.7516C74.9824 81.0248 75.1149 81.2733 75.3384 81.4306C77.541 82.9707 78.5015 85.6783 77.7232 88.179Z" fill="black"/>
<path d="M85.7811 77.9778H80.8378C80.3824 77.9778 80.0098 78.3504 80.0098 78.8058C80.0098 79.2612 80.3824 79.6338 80.8378 79.6338H85.7811C86.2365 79.6338 86.6091 79.2695 86.6091 78.8058C86.6091 78.3504 86.2365 77.9778 85.7811 77.9778Z" fill="black"/>
<path d="M85.7811 62.6841H80.8378C80.3824 62.6841 80.0098 63.0567 80.0098 63.5121C80.0098 63.9675 80.3824 64.3401 80.8378 64.3401H85.7811C86.2365 64.3401 86.6091 63.9675 86.6091 63.5121C86.6091 63.0567 86.2365 62.6841 85.7811 62.6841Z" fill="black"/>
<path d="M80.8378 60.5313H83.7607C84.2161 60.5313 84.5887 60.167 84.5887 59.7033C84.5887 59.2479 84.2161 58.8752 83.7607 58.8752H80.8378C80.3824 58.8752 80.0098 59.2479 80.0098 59.7033C80.0098 60.1587 80.3824 60.5313 80.8378 60.5313Z" fill="black"/>
<path d="M80.8378 56.6561H85.7811C86.2365 56.6561 86.6091 56.2834 86.6091 55.828C86.6091 55.3726 86.2365 55 85.7811 55H80.8378C80.3824 55 80.0098 55.3726 80.0098 55.828C80.0098 56.2834 80.3824 56.6561 80.8378 56.6561Z" fill="black"/>
<path d="M80.8378 75.8332H83.7607C84.2161 75.8332 84.5887 75.4606 84.5887 75.0052C84.5887 74.5497 84.2161 74.1771 83.7607 74.1771H80.8378C80.3824 74.1771 80.0098 74.5497 80.0098 75.0052C80.0098 75.4606 80.3824 75.8332 80.8378 75.8332Z" fill="black"/>
<path d="M85.7811 70.3682H80.8378C80.3824 70.3682 80.0098 70.7408 80.0098 71.1962C80.0098 71.6516 80.3824 72.0242 80.8378 72.0242H85.7811C86.2365 72.0242 86.6091 71.6516 86.6091 71.1962C86.6091 70.7408 86.2365 70.3682 85.7811 70.3682Z" fill="black"/>
</svg>
