<svg width="150" height="150" viewBox="0 0 150 150" fill="none" xmlns="http://www.w3.org/2000/svg">
<circle cx="75" cy="75" r="75" fill="#FEC600"/>
<path d="M91.7312 56.4272C89.8568 55.5069 87.4198 55 84.8691 55C82.3185 55 79.8815 55.5069 78.007 56.4272C76.8994 56.9711 76.0536 57.6358 75.5 58.3816C74.9464 57.6358 74.1006 56.9712 72.993 56.4273C71.1185 55.5069 68.6815 55 66.1309 55C63.5802 55 61.1432 55.5069 59.2688 56.4272C57.1609 57.4622 56 58.934 56 60.5714V82.8571C56 84.4946 57.1609 85.9664 59.2688 87.0014C61.0121 87.8573 63.2423 88.355 65.5977 88.4206V88.4286C65.5977 91.6048 69.8547 94 75.5 94C81.1452 94 85.4023 91.6048 85.4023 88.4286V88.4206C87.7577 88.355 89.9879 87.8573 91.7312 87.0014C93.8391 85.9664 95 84.4946 95 82.8571V60.5714C95 58.934 93.8391 57.4622 91.7312 56.4272ZM93.4766 77.2857C93.4766 78.0784 92.5897 79.0063 91.1621 79.7072C89.6169 80.4659 87.5425 80.9249 85.4023 80.9908V77.2857C85.4023 77.283 85.4022 77.2777 85.4022 77.2777C87.7577 77.2123 89.9878 76.7146 91.7313 75.8585C92.4156 75.5225 92.9993 75.1403 93.4766 74.7216L93.4766 77.2857ZM74.7383 66.1429C74.7383 66.9356 73.8514 67.8634 72.4238 68.5644C70.7505 69.386 68.4568 69.8571 66.1309 69.8571C63.8049 69.8571 61.5112 69.386 59.8379 68.5644C58.4103 67.8634 57.5234 66.9356 57.5234 66.1429V63.5787C58.0008 63.9975 58.5845 64.3797 59.2688 64.7156C61.1432 65.636 63.5802 66.1429 66.1309 66.1429C68.6815 66.1429 71.1185 65.636 72.993 64.7156C73.6772 64.3797 74.2609 63.9975 74.7383 63.5787V66.1429ZM59.2688 70.2871C61.1432 71.2074 63.5802 71.7143 66.1309 71.7143C68.6815 71.7143 71.1185 71.2074 72.993 70.2871C73.6772 69.9511 74.2609 69.5689 74.7383 69.1501V71.7307C72.7677 71.8121 70.8779 72.2063 69.3493 72.8626C67.8162 73.5208 66.713 74.3986 66.1131 75.4283C63.7932 75.4259 61.5069 74.9553 59.8379 74.1358C58.4103 73.4348 57.5234 72.507 57.5234 71.7143V69.1501C58.0008 69.5689 58.5845 69.9511 59.2688 70.2871ZM57.5234 74.7216C58.0008 75.1403 58.5845 75.5225 59.2688 75.8585C61.0122 76.7145 63.2424 77.2122 65.5979 77.2777C65.5979 77.2804 65.5977 77.2857 65.5977 77.2857V80.9908C63.4575 80.9249 61.3831 80.4659 59.838 79.7072C58.4103 79.0063 57.5234 78.0784 57.5234 77.2857V74.7216ZM67.2017 76.8295C67.7662 75.228 71.0244 73.5714 75.5 73.5714C79.9756 73.5714 83.2338 75.228 83.7977 76.8276C83.8524 76.9837 83.8789 77.1335 83.8789 77.2857C83.8789 78.1021 83.0533 79.009 81.6703 79.7114C80.0344 80.5424 77.8431 81 75.5 81C73.1569 81 70.9656 80.5424 69.3297 79.7114C67.9467 79.009 67.1211 78.1021 67.1211 77.2857C67.1211 77.1335 67.1477 76.9837 67.2017 76.8295ZM93.4766 71.7143C93.4766 72.507 92.5897 73.4348 91.1621 74.1358C89.4932 74.9553 87.2069 75.4259 84.8871 75.4283C84.2876 74.3992 83.1843 73.521 81.6507 72.8626C80.1221 72.2062 78.2323 71.8121 76.2617 71.7307V69.1501C76.7391 69.5689 77.3228 69.9511 78.007 70.2871C79.8815 71.2074 82.3185 71.7143 84.8691 71.7143C87.4198 71.7143 89.8568 71.2074 91.7312 70.2871C92.4155 69.9511 92.9992 69.5689 93.4766 69.1501V71.7143ZM93.4766 66.1429C93.4766 66.9356 92.5897 67.8634 91.1621 68.5644C89.4888 69.386 87.1951 69.8571 84.8691 69.8571C82.5432 69.8571 80.2495 69.386 78.5762 68.5644C77.1486 67.8634 76.2617 66.9356 76.2617 66.1429V63.5787C76.7391 63.9975 77.3228 64.3797 78.007 64.7156C79.8815 65.636 82.3185 66.1429 84.8691 66.1429C87.4198 66.1429 89.8568 65.636 91.7312 64.7156C92.4155 64.3797 92.9992 63.9975 93.4766 63.5787V66.1429ZM78.5762 58.1499C80.2495 57.3283 82.5432 56.8571 84.8691 56.8571C87.1951 56.8571 89.4888 57.3283 91.1621 58.1499C92.5897 58.8509 93.4766 59.7787 93.4766 60.5714C93.4766 61.3642 92.5897 62.292 91.1621 62.993C89.4888 63.8146 87.1951 64.2857 84.8691 64.2857C82.5432 64.2857 80.2495 63.8146 78.5762 62.993C77.1486 62.292 76.2617 61.3642 76.2617 60.5714C76.2617 59.7787 77.1486 58.8509 78.5762 58.1499ZM59.8379 58.1499C61.5112 57.3283 63.8049 56.8571 66.1309 56.8571C68.4568 56.8571 70.7505 57.3283 72.4238 58.1499C73.8514 58.8509 74.7383 59.7787 74.7383 60.5714C74.7383 61.3642 73.8514 62.292 72.4238 62.993C70.7505 63.8146 68.4568 64.2857 66.1309 64.2857C63.8049 64.2857 61.5112 63.8146 59.8379 62.993C58.4103 62.292 57.5234 61.3642 57.5234 60.5714C57.5234 59.7787 58.4103 58.8509 59.8379 58.1499ZM59.8379 85.2787C58.4103 84.5777 57.5234 83.6499 57.5234 82.8571V80.293C58.0008 80.7118 58.5845 81.094 59.2688 81.4299C61.0121 82.2859 63.2423 82.7836 65.5977 82.8492V86.5623C63.4575 86.4963 61.3831 86.0374 59.8379 85.2787ZM81.6703 90.8543C80.0344 91.6853 77.8431 92.1429 75.5 92.1429C73.1569 92.1429 70.9656 91.6853 69.3297 90.8543C67.9467 90.1518 67.1211 89.245 67.1211 88.4286V85.9185C67.2936 86.0707 67.4843 86.222 67.6957 86.3711C68.8786 87.2056 70.488 87.8228 72.3501 88.1559C72.3877 88.1626 72.4249 88.1659 72.4617 88.1659C72.8335 88.1659 73.1588 87.8337 73.2144 87.372C73.2755 86.8647 72.9875 86.393 72.5714 86.3185C69.0313 85.6849 67.1211 84.0623 67.1211 82.8571V80.3389C68.8452 81.8768 71.8885 82.8571 75.5 82.8571C79.1115 82.8571 82.1548 81.8768 83.8789 80.3389V82.8571C83.8789 84.0623 81.9687 85.6849 78.4286 86.3185C78.0124 86.393 77.7244 86.8647 77.7856 87.372C77.8412 87.8338 78.1665 88.1659 78.5383 88.1659C78.5751 88.1659 78.6124 88.1626 78.6499 88.1559C80.5119 87.8228 82.1213 87.2056 83.3043 86.3711C83.5156 86.222 83.7064 86.0707 83.8789 85.9185V88.4286C83.8789 89.245 83.0533 90.1518 81.6703 90.8543ZM91.1621 85.2787C89.6169 86.0373 87.5425 86.4963 85.4023 86.5622V82.8491C87.7577 82.7835 89.9879 82.2858 91.7312 81.4298C92.4155 81.0939 92.9992 80.7117 93.4766 80.2929V82.8571C93.4766 83.6499 92.5897 84.5777 91.1621 85.2787Z" fill="black"/>
</svg>
