<svg width="150" height="150" viewBox="0 0 150 150" fill="none" xmlns="http://www.w3.org/2000/svg">
<circle cx="75" cy="75" r="75" fill="#FEC600"/>
<path d="M75.4999 58.8999C66.8843 58.8999 59.8999 65.8843 59.8999 74.4999C59.8999 74.8589 60.1909 75.1499 60.5499 75.1499C60.9089 75.1499 61.1999 74.8589 61.1999 74.4999C61.1999 66.6022 67.6022 60.1999 75.4998 60.1999C75.8588 60.1999 76.1498 59.909 76.1498 59.55C76.1498 59.191 75.8589 58.8999 75.4999 58.8999Z" fill="black"/>
<path d="M79.5104 59.4199L78.8604 59.2574C78.5014 59.1803 78.1478 59.4087 78.0706 59.7677C77.9935 60.1267 78.2219 60.4803 78.5809 60.5574L79.1854 60.707C79.2415 60.7144 79.2983 60.7144 79.3545 60.707L79.3414 60.72C79.7004 60.7667 80.0293 60.5135 80.076 60.1545C80.1226 59.7955 79.8694 59.4665 79.5104 59.4199Z" fill="black"/>
<path d="M82.3819 61.8833C82.3764 61.8833 82.3708 61.8825 82.3652 61.8823C82.3605 61.8824 82.3558 61.8833 82.3511 61.8833H82.3819Z" fill="black"/>
<path d="M76.1501 58.8999H75.5001C75.1411 58.8999 74.8501 59.1909 74.8501 59.5499C74.8501 59.9089 75.1411 60.1999 75.5001 60.1999H76.1501C76.509 60.1999 76.8 59.9089 76.8 59.5499C76.8 59.1909 76.509 58.8999 76.1501 58.8999Z" fill="black"/>
<path d="M82.6502 60.6548L82.0716 60.3233C81.7526 60.1807 81.3778 60.3159 81.2233 60.6294C81.0647 60.9515 81.1971 61.3411 81.5191 61.4998L82.0846 61.8118C82.1719 61.8565 82.2682 61.88 82.366 61.8823C82.6049 61.8777 82.8229 61.7431 82.9322 61.5296C83.0959 61.2102 82.9696 60.8185 82.6502 60.6548Z" fill="black"/>
<path d="M90.4177 73.0829C90.0587 73.1008 89.7822 73.4064 89.8001 73.7654C89.8001 73.9994 89.8001 74.2074 89.8001 74.4153C89.8001 74.7743 90.0912 75.0653 90.4501 75.0653V75.0003C90.8091 75.0003 91.1001 74.7094 91.1001 74.3504C91.1001 74.1423 91.1001 73.9257 91.1001 73.7004C91.0822 73.3414 90.7767 73.065 90.4177 73.0829Z" fill="black"/>
<path d="M90.2032 71.7893C90.5528 71.7116 90.7738 71.3657 90.6972 71.0158C90.6495 70.7992 90.5953 70.5824 90.5347 70.3658C90.4396 70.0194 90.0816 69.8157 89.7352 69.9108C89.3888 70.006 89.1851 70.3639 89.2802 70.7103C89.3323 70.9053 89.3821 71.1047 89.4298 71.3084C89.4978 71.6107 89.7699 71.8229 90.0797 71.8154L90.2032 71.7893Z" fill="black"/>
<path d="M89.298 68.7233C89.6221 68.5689 89.7597 68.181 89.6053 67.857C89.5057 67.6533 89.4039 67.4518 89.2998 67.2525C89.2953 67.2434 89.2906 67.2343 89.2857 67.2255C89.1113 66.9117 88.7155 66.7987 88.4018 66.9731C88.088 67.1474 87.975 67.5432 88.1493 67.857C88.249 68.0389 88.3422 68.2231 88.4288 68.4094C88.5373 68.6373 88.7679 68.7818 89.0203 68.7799V68.7864C89.1164 68.7861 89.2112 68.7646 89.298 68.7233Z" fill="black"/>
<path d="M87.4211 64.4443C87.1895 64.1697 86.7792 64.1347 86.5046 64.3663C86.23 64.5979 86.195 65.0082 86.4266 65.2828C86.561 65.4388 86.6909 65.5991 86.8166 65.7638C86.9393 65.9233 87.1289 66.0169 87.3301 66.0173H87.3366C87.4795 66.017 87.6182 65.9696 87.7315 65.8824C88.0159 65.6634 88.069 65.2553 87.85 64.9709C87.7071 64.7953 87.5642 64.6198 87.4211 64.4443Z" fill="black"/>
<path d="M85.5036 62.5335L84.9707 62.1109C84.6853 61.8919 84.2764 61.9458 84.0574 62.2312C83.8385 62.5166 83.8923 62.9255 84.1777 63.1444L84.6652 63.5344C84.7821 63.6313 84.9293 63.6843 85.0812 63.684H85.0877C85.2817 63.6844 85.4657 63.598 85.5894 63.4487C85.8185 63.1723 85.7801 62.7625 85.5036 62.5335Z" fill="black"/>
<path d="M75.5003 62.8C69.0386 62.8 63.8003 68.0383 63.8003 74.5C63.8003 80.9618 69.0386 86.2 75.5003 86.2C81.962 86.2 87.2003 80.9618 87.2003 74.5C87.2003 68.0383 81.962 62.8 75.5003 62.8ZM75.5003 84.9C69.7566 84.9 65.1003 80.2438 65.1003 74.5C65.1003 68.7563 69.7566 64.1001 75.5003 64.1001C81.244 64.1001 85.9003 68.7563 85.9003 74.5C85.9003 80.2438 81.244 84.9 75.5003 84.9Z" fill="black"/>
<path d="M75.5003 69.3C72.6284 69.3 70.3003 71.6282 70.3003 74.5001C70.3003 77.372 72.6284 79.7001 75.5003 79.7001C78.3722 79.7001 80.7003 77.372 80.7003 74.5001C80.7003 71.6282 78.3722 69.3 75.5003 69.3ZM75.5003 78.4001C73.3464 78.4001 71.6003 76.654 71.6003 74.5001C71.6003 72.3462 73.3464 70.6001 75.5003 70.6001C77.6542 70.6001 79.4003 72.3462 79.4003 74.5001C79.4003 76.654 77.6542 78.4001 75.5003 78.4001Z" fill="black"/>
<path d="M75.5001 66.7C75.1411 66.7 74.8501 66.9909 74.8501 67.3499V69.9499C74.8501 70.3089 75.1411 70.5999 75.5001 70.5999C75.8591 70.5999 76.1501 70.3089 76.1501 69.9499V67.3499C76.1501 66.991 75.8591 66.7 75.5001 66.7Z" fill="black"/>
<path d="M75.5001 62.8C75.1411 62.8 74.8501 63.091 74.8501 63.45V64.7501C74.8501 65.109 75.1411 65.4 75.5001 65.4C75.8591 65.4 76.1501 65.109 76.1501 64.7501V63.45C76.1501 63.0911 75.8591 62.8 75.5001 62.8Z" fill="black"/>
<path d="M75.6499 83.5572C75.291 83.5612 75.0032 83.8553 75.0071 84.2143L75.0214 85.5143C75.0253 85.8732 75.3195 86.161 75.6784 86.1571C76.0374 86.1531 76.3252 85.859 76.3213 85.5L76.307 84.2001C76.3031 83.8411 76.0089 83.5533 75.6499 83.5572Z" fill="black"/>
<path d="M66.9942 74.4287C66.9882 74.0643 66.6879 73.7737 66.3235 73.7797L65.0039 73.8015C64.6445 73.7756 64.3322 74.0459 64.3063 74.4052C64.2804 74.7646 64.5507 75.0769 64.9101 75.1028L65.0256 75.1211L66.3452 75.0994C66.7096 75.0933 67.0001 74.7931 66.9942 74.4287Z" fill="black"/>
<path d="M86.544 74.5558C86.5398 74.1914 86.241 73.8993 85.8766 73.9035L84.5569 73.9185C84.1977 73.8908 83.884 74.1595 83.8563 74.5187C83.8286 74.878 84.0973 75.1917 84.4565 75.2194L84.572 75.2382L85.8917 75.2232C86.2561 75.219 86.5482 74.9203 86.544 74.5558Z" fill="black"/>
<path d="M91.75 55H59.25C57.4551 55 56 56.4551 56 58.25V90.7501C56 92.545 57.4551 94 59.25 94H91.7501C93.545 94 95 92.545 95 90.75V58.25C95 56.4551 93.545 55 91.75 55ZM93.7 90.75C93.7 91.8269 92.827 92.7 91.75 92.7H59.25C58.1731 92.7 57.3 91.827 57.3 90.75V58.25C57.3 57.1731 58.1731 56.3 59.25 56.3H91.7501C92.827 56.3 93.7001 57.1731 93.7001 58.25V90.75H93.7Z" fill="black"/>
<path d="M89.7997 86.2C88.3638 86.2 87.1997 87.364 87.1997 88.7999C87.1997 90.2358 88.3638 91.3999 89.7997 91.3999C91.2356 91.3999 92.3997 90.2358 92.3997 88.7999C92.3997 87.364 91.2357 86.2 89.7997 86.2ZM89.7997 90.0999C89.0817 90.0999 88.4997 89.5179 88.4997 88.7999C88.4997 88.0819 89.0817 87.4999 89.7997 87.4999C90.5177 87.4999 91.0997 88.0819 91.0997 88.7999C91.0997 89.5179 90.5177 90.0999 89.7997 90.0999Z" fill="black"/>
<path d="M69.2054 90.0999H60.7554C60.3964 90.0999 60.1055 90.3908 60.1055 90.7498C60.1055 91.1088 60.3964 91.3998 60.7554 91.3998H69.2054C69.5644 91.3998 69.8554 91.1088 69.8554 90.7498C69.8554 90.3908 69.5644 90.0999 69.2054 90.0999Z" fill="black"/>
</svg>
