<svg width="150" height="150" viewBox="0 0 150 150" fill="none" xmlns="http://www.w3.org/2000/svg">
<circle cx="75" cy="75" r="75" fill="#FEC600"/>
<path d="M93.4352 58.1274H86.0757V55.5742C86.0757 55.4219 86.0152 55.2759 85.9075 55.1682C85.7999 55.0605 85.6538 55 85.5015 55H83.053C82.9776 55 82.9029 55.0148 82.8333 55.0436C82.7636 55.0725 82.7002 55.1148 82.6469 55.1681C82.5936 55.2214 82.5513 55.2847 82.5225 55.3544C82.4936 55.4241 82.4788 55.4988 82.4788 55.5742V58.1274H76.3032V55.5742C76.3032 55.4988 76.2884 55.4241 76.2596 55.3544C76.2307 55.2847 76.1884 55.2214 76.1351 55.1681C76.0818 55.1148 76.0184 55.0725 75.9488 55.0436C75.8791 55.0148 75.8044 55 75.729 55H73.2805C73.2051 55 73.1304 55.0148 73.0607 55.0436C72.991 55.0725 72.9277 55.1148 72.8744 55.1681C72.821 55.2214 72.7787 55.2847 72.7499 55.3544C72.7211 55.4241 72.7062 55.4988 72.7063 55.5742V58.1274H66.5313V55.5742C66.5313 55.4988 66.5165 55.4241 66.4877 55.3544C66.4588 55.2847 66.4165 55.2214 66.3632 55.1681C66.3099 55.1148 66.2466 55.0725 66.1769 55.0436C66.1072 55.0148 66.0325 55 65.9571 55H63.508C63.3557 55 63.2096 55.0605 63.1019 55.1682C62.9942 55.2759 62.9337 55.4219 62.9337 55.5742V58.1274H55.5742C55.4988 58.1273 55.4241 58.1421 55.3544 58.171C55.2847 58.1998 55.2214 58.2421 55.1681 58.2954C55.1148 58.3488 55.0725 58.4121 55.0436 58.4818C55.0148 58.5515 55 58.6262 55 58.7016V93.4353C55 93.5107 55.0148 93.5854 55.0436 93.655C55.0725 93.7247 55.1148 93.7881 55.1681 93.8414C55.2214 93.8947 55.2847 93.937 55.3544 93.9659C55.4241 93.9947 55.4988 94.0095 55.5742 94.0095H93.4352C93.5107 94.0095 93.5854 93.9947 93.655 93.9659C93.7247 93.937 93.7881 93.8947 93.8414 93.8414C93.8947 93.7881 93.937 93.7247 93.9658 93.655C93.9947 93.5854 94.0095 93.5107 94.0095 93.4353V58.7016C94.0095 58.6262 93.9947 58.5515 93.9658 58.4818C93.937 58.4121 93.8947 58.3488 93.8414 58.2954C93.7881 58.2421 93.7247 58.1998 93.655 58.171C93.5854 58.1421 93.5107 58.1273 93.4352 58.1274ZM83.6266 56.1484H84.9266V61.2547H83.6266V56.1484ZM73.8541 56.1484H75.1541V61.2547H73.8547L73.8541 56.1484ZM64.0815 56.1484H65.3829V61.2547H64.0822L64.0815 56.1484ZM56.1484 59.2758H62.9337V61.8289C62.9337 61.9812 62.9942 62.1273 63.1019 62.235C63.2096 62.3427 63.3557 62.4032 63.508 62.4032H65.9564C66.0318 62.4032 66.1065 62.3884 66.1762 62.3595C66.2459 62.3307 66.3092 62.2884 66.3626 62.2351C66.4159 62.1817 66.4582 62.1184 66.487 62.0487C66.5159 61.979 66.5307 61.9044 66.5306 61.8289V59.2758H72.7063V61.8289C72.7062 61.9044 72.7211 61.979 72.7499 62.0487C72.7787 62.1184 72.821 62.1817 72.8744 62.2351C72.9277 62.2884 72.991 62.3307 73.0607 62.3595C73.1304 62.3884 73.2051 62.4032 73.2805 62.4032H75.729C75.8044 62.4032 75.8791 62.3884 75.9488 62.3595C76.0184 62.3307 76.0818 62.2884 76.1351 62.2351C76.1884 62.1817 76.2307 62.1184 76.2596 62.0487C76.2884 61.979 76.3032 61.9044 76.3032 61.8289V59.2758H82.4782V61.8289C82.4781 61.9044 82.493 61.979 82.5218 62.0487C82.5506 62.1184 82.5929 62.1817 82.6463 62.2351C82.6996 62.2884 82.7629 62.3307 82.8326 62.3595C82.9023 62.3884 82.977 62.4032 83.0524 62.4032H85.5009C85.6532 62.4032 85.7992 62.3427 85.9069 62.235C86.0146 62.1273 86.0751 61.9812 86.0751 61.8289V59.2758H92.8604V65.8465H56.1484V59.2758ZM56.1484 92.861V66.9949H92.861V92.861H56.1484Z" fill="black"/>
<path d="M62.5811 69.5876C62.0598 69.5876 61.5502 69.7422 61.1168 70.0319C60.6833 70.3215 60.3455 70.7332 60.146 71.2148C59.9465 71.6964 59.8943 72.2264 59.996 72.7377C60.0977 73.249 60.3487 73.7187 60.7173 74.0873C61.086 74.4559 61.5556 74.707 62.0669 74.8087C62.5782 74.9104 63.1082 74.8582 63.5898 74.6587C64.0715 74.4592 64.4831 74.1213 64.7728 73.6879C65.0624 73.2544 65.217 72.7448 65.217 72.2235C65.2163 71.5246 64.9384 70.8546 64.4442 70.3604C63.95 69.8663 63.28 69.5883 62.5811 69.5876ZM62.5811 73.7109C62.287 73.7109 61.9994 73.6236 61.7548 73.4602C61.5102 73.2968 61.3195 73.0645 61.207 72.7927C61.0944 72.5209 61.0649 72.2218 61.1223 71.9333C61.1797 71.6448 61.3214 71.3797 61.5294 71.1717C61.7374 70.9637 62.0024 70.8221 62.291 70.7647C62.5795 70.7073 62.8786 70.7367 63.1503 70.8493C63.4221 70.9619 63.6544 71.1525 63.8179 71.3971C63.9813 71.6417 64.0685 71.9293 64.0685 72.2235C64.0682 72.6178 63.9114 72.996 63.6325 73.2748C63.3536 73.5537 62.9755 73.7105 62.5811 73.7109Z" fill="black"/>
<path d="M70.5304 69.5876C70.009 69.5876 69.4994 69.7422 69.066 70.0319C68.6325 70.3215 68.2947 70.7332 68.0952 71.2148C67.8957 71.6964 67.8435 72.2264 67.9452 72.7377C68.0469 73.249 68.2979 73.7187 68.6665 74.0873C69.0352 74.4559 69.5048 74.707 70.0161 74.8087C70.5274 74.9104 71.0574 74.8582 71.539 74.6587C72.0207 74.4592 72.4323 74.1213 72.722 73.6879C73.0116 73.2544 73.1662 72.7448 73.1662 72.2235C73.1654 71.5246 72.8875 70.8547 72.3933 70.3605C71.8992 69.8664 71.2292 69.5884 70.5304 69.5876ZM70.5304 73.7109C70.2362 73.7109 69.9486 73.6236 69.704 73.4602C69.4594 73.2968 69.2688 73.0645 69.1562 72.7927C69.0436 72.5209 69.0142 72.2218 69.0716 71.9333C69.1289 71.6448 69.2706 71.3797 69.4786 71.1717C69.6866 70.9637 69.9517 70.8221 70.2402 70.7647C70.5287 70.7073 70.8278 70.7367 71.0996 70.8493C71.3713 70.9619 71.6036 71.1525 71.7671 71.3971C71.9305 71.6417 72.0178 71.9293 72.0178 72.2235C72.0173 72.6178 71.8605 72.9959 71.5816 73.2747C71.3028 73.5536 70.9247 73.7104 70.5304 73.7109Z" fill="black"/>
<path d="M78.4796 69.5876C77.9583 69.5876 77.4486 69.7422 77.0152 70.0319C76.5817 70.3215 76.2439 70.7332 76.0444 71.2148C75.8449 71.6964 75.7927 72.2264 75.8944 72.7377C75.9961 73.249 76.2471 73.7187 76.6158 74.0873C76.9844 74.4559 77.4541 74.707 77.9654 74.8087C78.4767 74.9104 79.0066 74.8582 79.4883 74.6587C79.9699 74.4592 80.3816 74.1213 80.6712 73.6879C80.9608 73.2544 81.1154 72.7448 81.1154 72.2235C81.1146 71.5246 80.8367 70.8547 80.3425 70.3605C79.8484 69.8664 79.1784 69.5884 78.4796 69.5876ZM78.4796 73.7109C78.1854 73.7109 77.8978 73.6236 77.6532 73.4602C77.4086 73.2968 77.218 73.0645 77.1054 72.7927C76.9928 72.5209 76.9634 72.2218 77.0208 71.9333C77.0782 71.6448 77.2198 71.3797 77.4278 71.1717C77.6359 70.9637 77.9009 70.8221 78.1894 70.7647C78.4779 70.7073 78.777 70.7367 79.0488 70.8493C79.3206 70.9619 79.5529 71.1525 79.7163 71.3971C79.8797 71.6417 79.967 71.9293 79.967 72.2235C79.9666 72.6178 79.8098 72.996 79.5309 73.2748C79.2521 73.5537 78.874 73.7105 78.4796 73.7109Z" fill="black"/>
<path d="M86.4286 69.5876C85.9073 69.5876 85.3977 69.7421 84.9642 70.0317C84.5307 70.3213 84.1928 70.7329 83.9932 71.2146C83.7937 71.6962 83.7414 72.2262 83.8431 72.7375C83.9448 73.2488 84.1958 73.7185 84.5644 74.0872C84.933 74.4558 85.4027 74.7069 85.914 74.8086C86.4253 74.9104 86.9553 74.8582 87.4369 74.6587C87.9186 74.4592 88.3303 74.1214 88.6199 73.6879C88.9095 73.2544 89.0641 72.7448 89.0641 72.2235C89.0634 71.5247 88.7856 70.8547 88.2915 70.3605C87.7974 69.8664 87.1274 69.5884 86.4286 69.5876ZM86.4286 73.7109C86.1344 73.7109 85.8468 73.6238 85.6022 73.4604C85.3576 73.297 85.1669 73.0647 85.0542 72.7929C84.9416 72.5211 84.9121 72.222 84.9695 71.9335C85.0268 71.645 85.1684 71.3799 85.3764 71.1718C85.5845 70.9638 85.8495 70.8221 86.138 70.7647C86.4265 70.7073 86.7256 70.7367 86.9974 70.8493C87.2692 70.9618 87.5016 71.1525 87.665 71.3971C87.8285 71.6417 87.9157 71.9293 87.9157 72.2235C87.9154 72.6178 87.7586 72.9959 87.4798 73.2747C87.201 73.5536 86.823 73.7104 86.4286 73.7109Z" fill="black"/>
<path d="M62.5808 77.2937C62.0594 77.2936 61.5497 77.4482 61.1161 77.7378C60.6826 78.0275 60.3446 78.4392 60.1451 78.9209C59.9455 79.4026 59.8933 79.9327 59.995 80.4441C60.0967 80.9555 60.3478 81.4252 60.7164 81.7939C61.0851 82.1626 61.5549 82.4137 62.0663 82.5154C62.5777 82.6171 63.1078 82.5649 63.5895 82.3653C64.0712 82.1657 64.4829 81.8278 64.7725 81.3942C65.0622 80.9607 65.2167 80.4509 65.2167 79.9295C65.2159 79.2307 64.9379 78.5607 64.4438 78.0666C63.9496 77.5724 63.2796 77.2945 62.5808 77.2937ZM62.5808 81.4173C62.2866 81.4173 61.9989 81.3301 61.7542 81.1667C61.5095 81.0032 61.3188 80.7709 61.2061 80.4991C61.0935 80.2272 61.064 79.9281 61.1213 79.6395C61.1787 79.3509 61.3204 79.0858 61.5284 78.8777C61.7364 78.6696 62.0015 78.5279 62.2901 78.4704C62.5787 78.413 62.8779 78.4424 63.1497 78.555C63.4216 78.6676 63.654 78.8583 63.8175 79.103C63.981 79.3476 64.0682 79.6353 64.0682 79.9295C64.0674 80.3236 63.9104 80.7014 63.6316 80.9799C63.3528 81.2585 62.9749 81.4152 62.5808 81.4156V81.4173Z" fill="black"/>
<path d="M70.5305 77.2937C70.0091 77.2936 69.4994 77.4482 69.0658 77.7378C68.6323 78.0275 68.2943 78.4392 68.0948 78.9209C67.8952 79.4026 67.843 79.9327 67.9447 80.4441C68.0464 80.9555 68.2975 81.4252 68.6662 81.7939C69.0349 82.1626 69.5046 82.4137 70.016 82.5154C70.5274 82.6171 71.0575 82.5649 71.5392 82.3653C72.0209 82.1657 72.4326 81.8278 72.7222 81.3942C73.0119 80.9607 73.1664 80.4509 73.1664 79.9295C73.1655 79.2307 72.8875 78.5608 72.3934 78.0667C71.8993 77.5726 71.2293 77.2946 70.5305 77.2937ZM70.5305 81.4173C70.2363 81.4173 69.9486 81.3301 69.7039 81.1667C69.4592 81.0032 69.2685 80.7709 69.1558 80.4991C69.0432 80.2272 69.0137 79.9281 69.071 79.6395C69.1284 79.3509 69.2701 79.0858 69.4781 78.8777C69.6862 78.6696 69.9512 78.5279 70.2398 78.4704C70.5284 78.413 70.8276 78.4424 71.0995 78.555C71.3713 78.6676 71.6037 78.8583 71.7672 79.103C71.9307 79.3476 72.0179 79.6353 72.0179 79.9295C72.0171 80.3236 71.86 80.7013 71.5812 80.9799C71.3024 81.2584 70.9246 81.4151 70.5305 81.4156V81.4173Z" fill="black"/>
<path d="M78.4793 77.2937C77.9578 77.2936 77.4481 77.4482 77.0146 77.7378C76.581 78.0275 76.2431 78.4392 76.0435 78.9209C75.8439 79.4026 75.7917 79.9327 75.8934 80.4441C75.9951 80.9555 76.2462 81.4252 76.6149 81.7939C76.9836 82.1626 77.4533 82.4137 77.9647 82.5154C78.4761 82.6171 79.0062 82.5649 79.4879 82.3653C79.9696 82.1657 80.3813 81.8278 80.671 81.3942C80.9606 80.9607 81.1152 80.4509 81.1151 79.9295C81.1142 79.2307 80.8362 78.5608 80.3421 78.0667C79.848 77.5726 79.1781 77.2946 78.4793 77.2937ZM78.4793 81.4173C78.185 81.4173 77.8973 81.3301 77.6526 81.1667C77.4079 81.0032 77.2172 80.7709 77.1046 80.4991C76.9919 80.2272 76.9624 79.9281 77.0198 79.6395C77.0771 79.3509 77.2188 79.0858 77.4268 78.8777C77.6349 78.6696 77.9 78.5279 78.1886 78.4704C78.4772 78.413 78.7763 78.4424 79.0482 78.555C79.32 78.6676 79.5524 78.8583 79.7159 79.103C79.8794 79.3476 79.9667 79.6353 79.9667 79.9295C79.9659 80.3236 79.8089 80.7014 79.5301 80.9799C79.2513 81.2585 78.8734 81.4152 78.4793 81.4156V81.4173Z" fill="black"/>
<path d="M86.4288 77.2937C85.9074 77.2936 85.3976 77.4481 84.964 77.7377C84.5304 78.0273 84.1924 78.439 83.9928 78.9207C83.7932 79.4024 83.7409 79.9324 83.8426 80.4439C83.9443 80.9553 84.1953 81.4251 84.564 81.7938C84.9327 82.1625 85.4024 82.4136 85.9138 82.5154C86.4252 82.6171 86.9553 82.5649 87.437 82.3653C87.9188 82.1658 88.3305 81.8278 88.6201 81.3943C88.9098 80.9607 89.0644 80.451 89.0643 79.9295C89.0635 79.2308 88.7856 78.5608 88.2915 78.0667C87.7975 77.5726 87.1276 77.2946 86.4288 77.2937ZM86.4288 81.4173C86.1345 81.4174 85.8468 81.3302 85.6021 81.1668C85.3574 81.0034 85.1666 80.7711 85.0539 80.4993C84.9412 80.2275 84.9116 79.9283 84.9689 79.6397C85.0263 79.3511 85.1679 79.0859 85.3759 78.8778C85.584 78.6697 85.8491 78.5279 86.1377 78.4704C86.4263 78.413 86.7254 78.4424 86.9973 78.555C87.2692 78.6676 87.5016 78.8583 87.6651 79.1029C87.8286 79.3476 87.9159 79.6353 87.9159 79.9295C87.9151 80.3236 87.7581 80.7013 87.4794 80.9798C87.2007 81.2584 86.8229 81.4151 86.4288 81.4156V81.4173Z" fill="black"/>
<path d="M62.5811 84.9968C62.0598 84.9968 61.5502 85.1514 61.1168 85.441C60.6833 85.7307 60.3455 86.1423 60.146 86.624C59.9465 87.1056 59.8943 87.6356 59.996 88.1469C60.0977 88.6582 60.3487 89.1278 60.7173 89.4965C61.086 89.8651 61.5556 90.1161 62.0669 90.2178C62.5782 90.3195 63.1082 90.2673 63.5898 90.0678C64.0715 89.8683 64.4831 89.5305 64.7728 89.097C65.0624 88.6636 65.217 88.154 65.217 87.6327C65.2163 86.9338 64.9384 86.2638 64.4442 85.7696C63.95 85.2754 63.28 84.9975 62.5811 84.9968ZM62.5811 89.12C62.287 89.12 61.9994 89.0328 61.7548 88.8694C61.5102 88.7059 61.3195 88.4736 61.207 88.2019C61.0944 87.9301 61.0649 87.631 61.1223 87.3425C61.1797 87.054 61.3214 86.7889 61.5294 86.5809C61.7374 86.3729 62.0024 86.2312 62.291 86.1738C62.5795 86.1165 62.8786 86.1459 63.1503 86.2585C63.4221 86.3711 63.6544 86.5617 63.8179 86.8063C63.9813 87.0509 64.0685 87.3385 64.0685 87.6327C64.0682 88.027 63.9114 88.4051 63.6325 88.684C63.3536 88.9629 62.9755 89.1197 62.5811 89.12Z" fill="black"/>
<path d="M70.5304 84.9968C70.009 84.9968 69.4994 85.1514 69.066 85.441C68.6325 85.7307 68.2947 86.1423 68.0952 86.624C67.8957 87.1056 67.8435 87.6356 67.9452 88.1469C68.0469 88.6582 68.2979 89.1278 68.6665 89.4965C69.0352 89.8651 69.5048 90.1161 70.0161 90.2178C70.5274 90.3195 71.0574 90.2673 71.539 90.0678C72.0207 89.8683 72.4323 89.5305 72.722 89.097C73.0116 88.6636 73.1662 88.154 73.1662 87.6327C73.1654 86.9338 72.8875 86.2639 72.3933 85.7697C71.8992 85.2756 71.2292 84.9976 70.5304 84.9968ZM70.5304 89.12C70.2362 89.12 69.9486 89.0328 69.704 88.8694C69.4594 88.7059 69.2688 88.4736 69.1562 88.2019C69.0436 87.9301 69.0142 87.631 69.0716 87.3425C69.1289 87.054 69.2706 86.7889 69.4786 86.5809C69.6866 86.3729 69.9517 86.2312 70.2402 86.1738C70.5287 86.1165 70.8278 86.1459 71.0996 86.2585C71.3713 86.3711 71.6036 86.5617 71.7671 86.8063C71.9305 87.0509 72.0178 87.3385 72.0178 87.6327C72.0173 88.027 71.8605 88.4051 71.5816 88.6839C71.3028 88.9628 70.9247 89.1196 70.5304 89.12Z" fill="black"/>
<path d="M78.4796 84.9968C77.9583 84.9968 77.4486 85.1514 77.0152 85.441C76.5817 85.7307 76.2439 86.1423 76.0444 86.624C75.8449 87.1056 75.7927 87.6356 75.8944 88.1469C75.9961 88.6582 76.2471 89.1278 76.6158 89.4965C76.9844 89.8651 77.4541 90.1161 77.9654 90.2178C78.4767 90.3195 79.0066 90.2673 79.4883 90.0678C79.9699 89.8683 80.3816 89.5305 80.6712 89.097C80.9608 88.6636 81.1154 88.154 81.1154 87.6327C81.1146 86.9338 80.8367 86.2639 80.3425 85.7697C79.8484 85.2756 79.1784 84.9976 78.4796 84.9968ZM78.4796 89.12C78.1854 89.12 77.8978 89.0328 77.6532 88.8694C77.4086 88.7059 77.218 88.4736 77.1054 88.2019C76.9928 87.9301 76.9634 87.631 77.0208 87.3425C77.0782 87.054 77.2198 86.7889 77.4278 86.5809C77.6359 86.3729 77.9009 86.2312 78.1894 86.1738C78.4779 86.1165 78.777 86.1459 79.0488 86.2585C79.3206 86.3711 79.5529 86.5617 79.7163 86.8063C79.8797 87.0509 79.967 87.3385 79.967 87.6327C79.9666 88.027 79.8098 88.4051 79.5309 88.684C79.2521 88.9629 78.874 89.1197 78.4796 89.12Z" fill="black"/>
<path d="M86.4286 84.9968C85.9073 84.9968 85.3977 85.1513 84.9642 85.4409C84.5307 85.7305 84.1928 86.1421 83.9932 86.6237C83.7937 87.1054 83.7414 87.6354 83.8431 88.1467C83.9448 88.658 84.1958 89.1277 84.5644 89.4963C84.933 89.865 85.4027 90.1161 85.914 90.2178C86.4253 90.3195 86.9553 90.2674 87.4369 90.0679C87.9186 89.8684 88.3303 89.5305 88.6199 89.0971C88.9095 88.6636 89.0641 88.154 89.0641 87.6327C89.0634 86.9339 88.7856 86.2639 88.2915 85.7697C87.7974 85.2756 87.1274 84.9976 86.4286 84.9968ZM86.4286 89.12C86.1344 89.1201 85.8468 89.0329 85.6022 88.8695C85.3576 88.7061 85.1669 88.4739 85.0542 88.2021C84.9416 87.9303 84.9121 87.6312 84.9695 87.3427C85.0268 87.0541 85.1684 86.7891 85.3764 86.581C85.5845 86.373 85.8495 86.2313 86.138 86.1739C86.4265 86.1164 86.7256 86.1459 86.9974 86.2585C87.2692 86.371 87.5016 86.5617 87.665 86.8063C87.8285 87.0509 87.9157 87.3385 87.9157 87.6327C87.9154 88.027 87.7586 88.405 87.4798 88.6839C87.201 88.9628 86.823 89.1196 86.4286 89.12Z" fill="black"/>
</svg>
