<svg width="150" height="150" viewBox="0 0 150 150" fill="none" xmlns="http://www.w3.org/2000/svg">
<circle cx="75" cy="75" r="75" fill="#FEC600"/>
<path d="M68.3424 82.297C74.6314 82.297 78.095 78.6027 78.095 71.8943C78.095 65.6135 69.2046 55.6276 68.8262 55.2064C68.6996 55.0746 68.5249 55 68.3424 55C68.1599 55 67.9849 55.0746 67.8586 55.2064C67.4802 55.6276 58.5898 65.6135 58.5898 71.8943C58.5898 78.6027 62.0534 82.297 68.3424 82.297ZM68.3424 56.6321C70.2037 58.8166 76.7946 66.9015 76.7946 71.8943C76.7946 76.0467 75.3279 80.9967 68.3424 80.9967C61.3569 80.9967 59.8902 76.0467 59.8902 71.8943C59.8902 66.9015 66.4808 58.8166 68.3424 56.6321Z" fill="black"/>
<path d="M86.5488 83.5973C90.2676 83.5973 92.4003 81.1157 92.4003 76.7874C92.4003 72.7232 87.2437 67.1364 87.0247 66.9002C86.899 66.7732 86.7275 66.7018 86.5488 66.7018C86.3701 66.7018 86.1986 66.7732 86.0729 66.9002C85.8539 67.1364 80.6973 72.7232 80.6973 76.7874C80.6973 81.1157 82.8297 83.5973 86.5488 83.5973ZM86.5488 68.3247C87.8028 69.7837 91.1 73.8956 91.1 76.7874C91.1 80.4433 89.5689 82.297 86.5488 82.297C83.5287 82.297 81.9976 80.4433 81.9976 76.7874C81.9976 73.8956 85.2945 69.7837 86.5488 68.3247Z" fill="black"/>
<path d="M76.9581 81.2163C76.7924 81.4043 72.8945 85.8561 72.8945 88.7987C72.8945 92.1041 74.5536 94 77.4457 94C80.3375 94 81.9969 92.1041 81.9969 88.7987C81.9969 85.8561 78.0991 81.4043 77.9334 81.2163C77.8064 81.0823 77.6302 81.0065 77.4457 81.0065C77.2613 81.0065 77.0848 81.0823 76.9581 81.2163ZM77.4457 92.6997C75.2892 92.6997 74.1949 91.387 74.1949 88.7987C74.1949 87.0313 76.2292 84.1545 77.4457 82.6557C78.6629 84.1513 80.6966 87.0288 80.6966 88.7987C80.6966 91.387 79.6023 92.6997 77.4457 92.6997Z" fill="black"/>
<path d="M66.9784 79.6931C67 79.6953 67.0216 79.6963 67.0435 79.6963C67.3899 79.6963 67.6756 79.4245 67.6931 79.0785C67.7102 78.7324 67.4534 78.4337 67.1086 78.3991C65.7505 78.3308 64.4863 77.6854 63.6346 76.6254C61.9053 74.3708 62.478 70.7361 62.4831 70.6999C62.5304 70.3516 62.2923 70.0288 61.9457 69.971C61.599 69.9135 61.2691 70.1418 61.2012 70.4866C61.1723 70.6583 60.5275 74.7035 62.5984 77.4108C63.6638 78.7642 65.2587 79.5953 66.9784 79.6931Z" fill="black"/>
</svg>
