<svg width="150" height="150" viewBox="0 0 150 150" fill="none" xmlns="http://www.w3.org/2000/svg">
<circle cx="75" cy="75" r="75" fill="#FEC600"/>
<path d="M84.0895 74.607H81.5038V55.214H77.6252V74.607H75.0395C74.6825 74.607 74.3931 74.8964 74.3931 75.2534V76.512C74.3927 76.681 74.4587 76.8435 74.5767 76.9645L75.5314 77.9451L75.1229 78.6704C75.0681 78.767 75.0393 78.8762 75.0395 78.9872V89.4749C75.0395 91.974 77.0654 93.9999 79.5645 93.9999C82.0636 93.9999 84.0895 91.974 84.0895 89.4749V79.0383C84.0895 78.931 84.0629 78.8255 84.012 78.7312L83.5866 77.9419L84.5608 76.9024C84.6733 76.7827 84.7359 76.6246 84.736 76.4603V75.2534C84.736 74.8964 84.4465 74.607 84.0895 74.607ZM78.9181 56.5069H80.2109V59.0926H78.9181V56.5069ZM78.9181 60.3854H80.2109V74.607H78.9181V60.3854ZM83.4431 76.2043L82.3254 77.397C82.1351 77.5997 82.0959 77.9014 82.2278 78.1462L82.7967 79.2012V89.4749C82.7967 91.26 81.3496 92.7071 79.5645 92.7071C77.7795 92.7071 76.3324 91.26 76.3324 89.4749V79.1559L76.8954 78.1565C77.0363 77.9065 76.9955 77.5935 76.7952 77.3879L75.6859 76.2495V75.8998H83.4431V76.2043Z" fill="black"/>
<path d="M64.9021 55.0344C64.5636 54.9208 64.1971 55.1032 64.0836 55.4417C64.0614 55.508 64.0501 55.5774 64.0501 55.6472V60.1722C64.0499 61.2454 63.1798 62.1153 62.1067 62.1151C61.906 62.1151 61.7065 62.084 61.5154 62.0229C60.7277 61.6892 60.204 60.9301 60.1715 60.0752V55.6472C60.1715 55.4395 60.0717 55.2445 59.9032 55.1229C59.7353 55.0003 59.5183 54.9671 59.3214 55.0337C56.7392 55.8897 54.9971 58.3051 55 61.0255V62.1115C54.9953 63.9983 55.7455 65.8085 57.0835 67.1388C57.3205 67.3753 57.5748 67.5937 57.8443 67.7924C58.1698 68.0344 58.5159 68.2475 58.8786 68.4291V92.0607C58.8786 93.1318 59.7469 94 60.8179 94H63.4036C64.4747 94 65.3429 93.1318 65.3429 92.0607V68.4291C67.7321 67.2322 69.2354 64.7836 69.2215 62.1115V61.0255C69.2198 58.3074 67.4804 55.8948 64.9021 55.0344ZM64.0501 92.0607C64.0501 92.4177 63.7606 92.7072 63.4036 92.7072H60.8179C60.4609 92.7072 60.1715 92.4177 60.1715 92.0607V68.9533C60.2226 68.9676 60.2762 68.9727 60.3279 68.9863C60.5434 69.0423 60.7627 69.0882 60.986 69.124C61.0636 69.1363 61.1398 69.1505 61.2174 69.1602C61.8104 69.2429 62.4119 69.2429 63.0048 69.1602C63.0817 69.1505 63.1574 69.1369 63.2336 69.1247C63.4573 69.0893 63.6791 69.0426 63.8982 68.985C63.9479 68.9721 64.0003 68.9676 64.0501 68.9533V92.0607ZM67.9287 62.1115C67.9363 63.9431 67.0723 65.6691 65.6015 66.7606C65.2423 67.0334 64.8516 67.2621 64.4379 67.442C63.3336 67.9239 62.1069 68.0511 60.9272 67.8059C60.5344 67.7244 60.1513 67.6016 59.7843 67.4394C59.3704 67.2591 58.9797 67.0297 58.6207 66.7561C58.4014 66.5948 58.1946 66.4172 58.0021 66.2248C56.9057 65.1371 56.2902 63.6558 56.2929 62.1115V61.0255C56.2921 59.2009 57.2823 57.5199 58.8786 56.6362V60.0752C58.9101 61.5 59.8062 62.7618 61.1411 63.2609C62.844 63.7964 64.6585 62.8501 65.1941 61.1472C65.2933 60.8317 65.3435 60.5029 65.3429 60.1722V56.6362C66.9376 57.5225 67.9271 59.203 67.9287 61.0274V62.1115Z" fill="black"/>
</svg>
