<svg width="150" height="150" viewBox="0 0 150 150" fill="none" xmlns="http://www.w3.org/2000/svg">
<circle cx="75" cy="75" r="75" fill="#FEC600"/>
<path d="M85.0172 71.4056C88.3529 71.0235 90.9531 68.1863 90.9531 64.75C90.9531 61.0541 87.9459 58.0469 84.25 58.0469C80.8137 58.0469 77.9765 60.6471 77.5944 63.9828C76.6115 63.6933 75.5749 63.5312 74.5 63.5312C68.452 63.5312 63.5312 68.452 63.5312 74.5C63.5312 80.548 68.452 85.4688 74.5 85.4688C80.548 85.4688 85.4688 80.548 85.4688 74.5C85.4688 73.4251 85.3067 72.3885 85.0172 71.4056ZM84.25 59.2656C87.2737 59.2656 89.7344 61.7263 89.7344 64.75C89.7344 67.6567 87.459 70.0363 84.5967 70.2167C83.4858 67.6074 81.392 65.5142 78.7833 64.4033C78.9637 61.541 81.3433 59.2656 84.25 59.2656ZM74.5 84.25C69.1241 84.25 64.75 79.8759 64.75 74.5C64.75 69.1241 69.1241 64.75 74.5 64.75C79.8759 64.75 84.25 69.1241 84.25 74.5C84.25 79.8759 79.8759 84.25 74.5 84.25Z" fill="black"/>
<path d="M87.9062 82.4219C84.8825 82.4219 82.4219 84.8825 82.4219 87.9062C82.4219 90.93 84.8825 93.3906 87.9062 93.3906C90.93 93.3906 93.3906 90.93 93.3906 87.9062C93.3906 84.8825 90.93 82.4219 87.9062 82.4219ZM87.9062 92.1719C85.5541 92.1719 83.6406 90.2584 83.6406 87.9062C83.6406 85.5541 85.5541 83.6406 87.9062 83.6406C90.2584 83.6406 92.1719 85.5541 92.1719 87.9062C92.1719 90.2584 90.2584 92.1719 87.9062 92.1719Z" fill="black"/>
<path d="M63.5312 66.5781C66.555 66.5781 69.0156 64.1175 69.0156 61.0938C69.0156 58.07 66.555 55.6094 63.5312 55.6094C60.5075 55.6094 58.0469 58.07 58.0469 61.0938C58.0469 64.1175 60.5075 66.5781 63.5312 66.5781ZM63.5312 56.8281C65.8834 56.8281 67.7969 58.7416 67.7969 61.0938C67.7969 63.4459 65.8834 65.3594 63.5312 65.3594C61.1791 65.3594 59.2656 63.4459 59.2656 61.0938C59.2656 58.7416 61.1791 56.8281 63.5312 56.8281Z" fill="black"/>
<path d="M64.1406 87.2969C62.4606 87.2969 61.0938 88.6637 61.0938 90.3438C61.0938 92.0238 62.4606 93.3906 64.1406 93.3906C65.8207 93.3906 67.1875 92.0238 67.1875 90.3438C67.1875 88.6637 65.8207 87.2969 64.1406 87.2969ZM64.1406 92.1719C63.1327 92.1719 62.3125 91.3517 62.3125 90.3438C62.3125 89.3358 63.1327 88.5156 64.1406 88.5156C65.1485 88.5156 65.9688 89.3358 65.9688 90.3438C65.9688 91.3517 65.1485 92.1719 64.1406 92.1719Z" fill="black"/>
<path d="M58.6562 76.3281C56.9762 76.3281 55.6094 77.695 55.6094 79.375C55.6094 81.055 56.9762 82.4219 58.6562 82.4219C60.3363 82.4219 61.7031 81.055 61.7031 79.375C61.7031 77.695 60.3363 76.3281 58.6562 76.3281ZM58.6562 81.2031C57.6483 81.2031 56.8281 80.3829 56.8281 79.375C56.8281 78.3671 57.6483 77.5469 58.6562 77.5469C59.6642 77.5469 60.4844 78.3671 60.4844 79.375C60.4844 80.3829 59.6642 81.2031 58.6562 81.2031Z" fill="black"/>
<path d="M60.4844 75.1094C62.1644 75.1094 63.5312 73.7425 63.5312 72.0625C63.5312 70.3825 62.1644 69.0156 60.4844 69.0156C58.8043 69.0156 57.4375 70.3825 57.4375 72.0625C57.4375 73.7425 58.8043 75.1094 60.4844 75.1094ZM60.4844 70.2344C61.4923 70.2344 62.3125 71.0546 62.3125 72.0625C62.3125 73.0704 61.4923 73.8906 60.4844 73.8906C59.4765 73.8906 58.6562 73.0704 58.6562 72.0625C58.6562 71.0546 59.4765 70.2344 60.4844 70.2344Z" fill="black"/>
<path d="M89.125 73.8906C87.7807 73.8906 86.6875 74.9838 86.6875 76.3281C86.6875 77.6724 87.7807 78.7656 89.125 78.7656C90.4693 78.7656 91.5625 77.6724 91.5625 76.3281C91.5625 74.9838 90.4693 73.8906 89.125 73.8906ZM89.125 77.5469C88.4529 77.5469 87.9062 77.0003 87.9062 76.3281C87.9062 75.656 88.4529 75.1094 89.125 75.1094C89.7971 75.1094 90.3438 75.656 90.3438 76.3281C90.3438 77.0003 89.7971 77.5469 89.125 77.5469Z" fill="black"/>
<path d="M76.3281 86.0781C74.9838 86.0781 73.8906 87.1713 73.8906 88.5156C73.8906 89.8599 74.9838 90.9531 76.3281 90.9531C77.6724 90.9531 78.7656 89.8599 78.7656 88.5156C78.7656 87.1713 77.6724 86.0781 76.3281 86.0781ZM76.3281 89.7344C75.656 89.7344 75.1094 89.1878 75.1094 88.5156C75.1094 87.8435 75.656 87.2969 76.3281 87.2969C77.0003 87.2969 77.5469 87.8435 77.5469 88.5156C77.5469 89.1878 77.0003 89.7344 76.3281 89.7344Z" fill="black"/>
<path d="M74.5 61.7031C75.5079 61.7031 76.3281 60.8829 76.3281 59.875C76.3281 58.8671 75.5079 58.0469 74.5 58.0469C73.4921 58.0469 72.6719 58.8671 72.6719 59.875C72.6719 60.8829 73.4921 61.7031 74.5 61.7031ZM74.5 59.2656C74.8358 59.2656 75.1094 59.5392 75.1094 59.875C75.1094 60.2108 74.8358 60.4844 74.5 60.4844C74.1642 60.4844 73.8906 60.2108 73.8906 59.875C73.8906 59.5392 74.1642 59.2656 74.5 59.2656Z" fill="black"/>
<path d="M61.7031 84.8594C61.7031 85.8673 62.5233 86.6875 63.5312 86.6875C64.5392 86.6875 65.3594 85.8673 65.3594 84.8594C65.3594 83.8515 64.5392 83.0312 63.5312 83.0312C62.5233 83.0312 61.7031 83.8515 61.7031 84.8594ZM63.5312 84.25C63.867 84.25 64.1406 84.5236 64.1406 84.8594C64.1406 85.1951 63.867 85.4688 63.5312 85.4688C63.1955 85.4688 62.9219 85.1951 62.9219 84.8594C62.9219 84.5236 63.1955 84.25 63.5312 84.25Z" fill="black"/>
</svg>
